<?xml version="1.0" encoding="UTF-8" standalone="no"?>
<svg
   xmlns:dc="http://purl.org/dc/elements/1.1/"
   xmlns:cc="http://creativecommons.org/ns#"
   xmlns:rdf="http://www.w3.org/1999/02/22-rdf-syntax-ns#"
   xmlns:svg="http://www.w3.org/2000/svg"
   xmlns="http://www.w3.org/2000/svg"
   xmlns:sodipodi="http://sodipodi.sourceforge.net/DTD/sodipodi-0.dtd"
   xmlns:inkscape="http://www.inkscape.org/namespaces/inkscape"
   enable-background="new 0 0 141.732 141.732"
   height="141.732px"
   id="Livello_1"
   version="1.1"
   viewBox="0 0 141.732 141.732"
   width="141.732px"
   x="0px"
   xml:space="preserve"
   y="0px"
   inkscape:version="0.48.4 r9939"
   sodipodi:docname="pin.svg"
   inkscape:export-filename="/home/vagabond/research/software/chrome-ext/Location Guard/images/pin_disabled_19.png"
   inkscape:export-xdpi="12.065024"
   inkscape:export-ydpi="12.065024"><metadata
     id="metadata11"><rdf:RDF><cc:Work
         rdf:about=""><dc:format>image/svg+xml</dc:format><dc:type
           rdf:resource="http://purl.org/dc/dcmitype/StillImage" /><dc:title></dc:title></cc:Work></rdf:RDF></metadata><defs
     id="defs9"><linearGradient
       id="linearGradient5204"><stop
         offset="0"
         style="stop-color:#0a1ba1;stop-opacity:1"
         id="stop5206" /></linearGradient></defs><sodipodi:namedview
     pagecolor="#ffffff"
     bordercolor="#666666"
     borderopacity="1"
     objecttolerance="10"
     gridtolerance="10"
     guidetolerance="10"
     inkscape:pageopacity="0"
     inkscape:pageshadow="2"
     inkscape:window-width="1301"
     inkscape:window-height="744"
     id="namedview7"
     showgrid="false"
     inkscape:zoom="1.1774138"
     inkscape:cx="-154.4188"
     inkscape:cy="-30.547585"
     inkscape:window-x="65"
     inkscape:window-y="24"
     inkscape:window-maximized="1"
     inkscape:current-layer="Livello_1" /><g
     id="Livello_1_1_" /><path
     sodipodi:nodetypes="cssccccccc"
     d="m 116.16064,52.086313 c 0,-24.713409 -20.124326,-44.7467224 -44.951715,-44.7467224 -24.82562,0 -44.951699,20.0333134 -44.951699,44.7467224 0,10.865737 3.894628,20.828493 10.366537,28.577998 L 71.2478,130.39241 106.37812,79.938931 c 1.2617,-1.571816 2.41736,-3.228446 3.45992,-4.969897 l 0.35518,-0.507149 -0.0583,0 c 3.82571,-6.585886 6.02571,-14.221411 6.02571,-22.375571"
     id="path3041-4"
     inkscape:connector-curvature="0"
     style="fill:#ffffff;stroke:#000000;stroke-width:11.67851257;stroke-miterlimit:4;stroke-dasharray:none" /><path
     sodipodi:nodetypes="csscccssccccccc"
     d="m -66.571713,50.744101 c 0,13.979991 11.43226,-2.90429 -2.61674,-2.90429 -14.05101,0 13.89863,14.482051 13.89863,0.50205 0,-13.984 -36.35547,7.70877 -22.30646,7.70877 14.052,-0.001 11.02457,-19.29153 11.02457,-5.30653 m 26.393,0 c 0,-27.971 -22.777,-50.64500028 -50.87701,-50.64500028 -28.097997,0 -50.876997,22.67400028 -50.876997,50.64500028 0,12.298001 4.408,23.573991 11.733,32.344991 l 39.187997,56.283028 39.76101,-57.104028 c 1.428,-1.779 2.736,-3.654 3.916,-5.625 l 0.402,-0.574 -0.066,0 c 4.33,-7.454 6.82,-16.09599 6.82,-25.324991"
     id="path3041"
     inkscape:connector-curvature="0" /><path
     d="m -120.60207,33.280741 c -5.37157,0.0456 -9.42262,1.45893 -12.34875,4.02064 -3.02052,2.64434 -4.83974,6.50842 -5.70008,11.34769 l 0,0.0109 0.004,0.0145 c 2.8629,8.11931 6.60128,13.121101 10.7734,16.031771 4.1721,2.91074 8.77308,3.72612 13.34393,3.47324 4.57083,-0.25291 9.11455,-1.57083 13.17876,-2.91852 4.057867,-1.34558 7.643597,-2.71969 10.294857,-3.10339 2.65126,0.3837 6.23701,1.75781 10.29486,3.10339 4.28937,1.56603 8.37815,2.62456 13.17877,2.91852 4.06638,0.22496 8.29653,-0.4118 13.06198,-3.47327 4.76544,-3.06151 9.21856,-10.866191 11.05535,-16.031741 l 0.004,-0.0145 0,-0.0109 c -0.87689,-4.14146 -1.43466,-6.50394 -4.184,-9.79962 -2.12692,-2.52153 -5.03399,-4.25108 -8.83782,-5.0539 -7.60293,-1.60462 -18.78022,0.48688 -34.57311,7.30169 -12.311307,-5.31244 -21.816797,-7.7582 -29.012767,-7.8165 -0.003,-2e-5 -0.006,2e-5 -0.008,0 -0.17603,-0.002 -0.35184,-0.002 -0.52511,0 z m 5.18341,13.78763 c 6.15119,0.0394 10.238,4.03727 15.19879,6.77237 -8.47328,4.89205 -21.49891,5.534531 -23.54563,-4.68773 3.21417,-1.50983 5.93986,-2.10007 8.34684,-2.08464 z m 48.039847,0 c 2.40699,-0.0154 5.12845,0.57481 8.34261,2.08464 -2.04671,10.222261 -16.40658,8.80946 -23.54563,4.68773 4.96079,-2.7351 9.05185,-6.73294 15.20302,-6.77237 z"
     id="path3052"
     style="font-size:medium;font-style:normal;font-variant:normal;font-weight:normal;font-stretch:normal;text-indent:0;text-align:start;text-decoration:none;line-height:normal;letter-spacing:normal;word-spacing:normal;text-transform:none;direction:ltr;block-progression:tb;writing-mode:lr-tb;text-anchor:start;baseline-shift:baseline;color:#000000;fill:#ffffff;fill-opacity:1;fill-rule:nonzero;stroke:none;stroke-width:0.382;marker:none;visibility:visible;display:inline;overflow:visible;enable-background:accumulate;font-family:Sans;-inkscape-font-specification:Sans"
     inkscape:connector-curvature="0"
     sodipodi:nodetypes="csccccsscccsccccscccccsccscccc" /></svg>